<?xml version="1.0"?>
<svg width="25" height="25" xmlns="http://www.w3.org/2000/svg" xmlns:svg="http://www.w3.org/2000/svg" preserveAspectRatio="xMidYMid">
 <g>
  <title>Layer 1</title>
  <g stroke="null" id="svg_1">
   <path stroke="null" id="svg_2" fill="#A9B9CB" d="m22.999039,8.51045c-0.000148,-0.359441 -0.076965,-0.677024 -0.232231,-0.949555c-0.15252,-0.268078 -0.381039,-0.492664 -0.687414,-0.670344c-2.52945,-1.459883 -5.061349,-2.915313 -7.589908,-4.376681c-0.681699,-0.393879 -1.342692,-0.379555 -2.019344,0.020039c-1.006778,0.594344 -6.047419,3.485016 -7.549459,4.355825c-0.618539,0.358477 -0.91957,0.907028 -0.919719,1.620047c-0.000965,2.935946 0,5.871743 -0.000965,8.807764c0.000148,0.3515 0.073699,0.662922 0.222137,0.931446c0.152594,0.276094 0.384231,0.506914 0.697731,0.688602c1.502114,0.870809 6.543423,3.761259 7.549978,4.355751c0.676949,0.399816 1.337942,0.414066 2.019864,0.020039c2.528633,-1.461442 5.060681,-2.916797 7.590502,-4.376681c0.3135,-0.181613 0.545137,-0.412582 0.697731,-0.688453c0.148215,-0.268523 0.221914,-0.579945 0.222063,-0.93152c0,0 0,-5.870259 -0.000965,-8.806279"/>
   <path stroke="null" id="svg_3" fill="#7F8B99" d="m14.472342,2.533019c-0.680586,-0.392914 -1.340465,-0.37859 -2.016004,0.019965c-1.005145,0.592785 -6.037548,3.475962 -7.537138,4.344544c-0.617574,0.357512 -0.918086,0.904653 -0.918235,1.615817c-0.000965,2.928301 0,5.856529 -0.000965,8.784904c0.000148,0.350609 0.073551,0.661215 0.221766,0.928996c0.152371,0.275426 0.383637,0.505652 0.696617,0.68682c0.343559,0.198981 0.872738,0.503797 1.496176,0.862422l13.885737,-13.885737c-1.942899,-1.118774 -3.886317,-2.236657 -5.827954,-3.357731"/>
   <path stroke="null" id="svg_4" fill="#FFFFFF" d="m15.463534,11.575388l2.956801,0.020855c0,-1.231957 -1.247024,-4.24895 -4.822216,-4.24895c-2.277848,0 -5.340114,1.448157 -5.340114,5.611681c0,4.16345 3.001926,5.521134 5.340114,5.521134c3.786419,0 4.691368,-2.620071 4.691368,-4.100735l-2.820833,-0.161277c0,0 0.07548,1.712598 -1.885602,1.712598c-1.810196,0 -2.112266,-2.217508 -2.112266,-2.971719c0,-1.146457 0.407684,-2.98686 2.112266,-2.98686c1.704657,0 1.880481,1.603274 1.880481,1.603274"/>
  </g>
 </g>
</svg>